<?xml version="1.0" encoding="UTF-8" standalone="no"?>
<!DOCTYPE svg PUBLIC "-//W3C//DTD SVG 1.1//EN"
 "http://www.w3.org/Graphics/SVG/1.1/DTD/svg11.dtd">
<!-- Generated by graphviz version 2.43.0 (0)
 -->
<!-- Title: G Pages: 1 -->
<svg width="669pt" height="681pt"
 viewBox="0.00 0.00 669.20 681.20" xmlns="http://www.w3.org/2000/svg" xmlns:xlink="http://www.w3.org/1999/xlink">
<g id="graph0" class="graph" transform="scale(1 1) rotate(0) translate(21.6 659.6)">
<title>G</title>
<polygon fill="#111111" stroke="transparent" points="-21.6,21.6 -21.6,-659.6 647.6,-659.6 647.6,21.6 -21.6,21.6"/>
<!-- (tabs)/_layout.tsx -->
<g id="node1" class="node">
<title>(tabs)/_layout.tsx</title>
<path fill="none" stroke="#cfffac" d="M111.83,-23C111.83,-23 8.17,-23 8.17,-23 4.33,-23 0.5,-19.17 0.5,-15.33 0.5,-15.33 0.5,-7.67 0.5,-7.67 0.5,-3.83 4.33,0 8.17,0 8.17,0 111.83,0 111.83,0 115.67,0 119.5,-3.83 119.5,-7.67 119.5,-7.67 119.5,-15.33 119.5,-15.33 119.5,-19.17 115.67,-23 111.83,-23"/>
<text text-anchor="middle" x="60" y="-7.8" font-family="Arial" font-size="14.00" fill="#cfffac">(tabs)/_layout.tsx</text>
</g>
<!-- (tabs)/explore.tsx -->
<g id="node2" class="node">
<title>(tabs)/explore.tsx</title>
<path fill="none" stroke="#cfffac" d="M112.33,-64C112.33,-64 7.67,-64 7.67,-64 3.83,-64 0,-60.17 0,-56.33 0,-56.33 0,-48.67 0,-48.67 0,-44.83 3.83,-41 7.67,-41 7.67,-41 112.33,-41 112.33,-41 116.17,-41 120,-44.83 120,-48.67 120,-48.67 120,-56.33 120,-56.33 120,-60.17 116.17,-64 112.33,-64"/>
<text text-anchor="middle" x="60" y="-48.8" font-family="Arial" font-size="14.00" fill="#cfffac">(tabs)/explore.tsx</text>
</g>
<!-- (tabs)/index.tsx -->
<g id="node3" class="node">
<title>(tabs)/index.tsx</title>
<path fill="none" stroke="#c6c5fe" d="M106.33,-187C106.33,-187 13.67,-187 13.67,-187 9.83,-187 6,-183.17 6,-179.33 6,-179.33 6,-171.67 6,-171.67 6,-167.83 9.83,-164 13.67,-164 13.67,-164 106.33,-164 106.33,-164 110.17,-164 114,-167.83 114,-171.67 114,-171.67 114,-179.33 114,-179.33 114,-183.17 110.17,-187 106.33,-187"/>
<text text-anchor="middle" x="60" y="-171.8" font-family="Arial" font-size="14.00" fill="#c6c5fe">(tabs)/index.tsx</text>
</g>
<!-- ../lib/supabase/supabaseClients.ts -->
<g id="node4" class="node">
<title>../lib/supabase/supabaseClients.ts</title>
<path fill="none" stroke="#c6c5fe" d="M369.33,-146C369.33,-146 163.67,-146 163.67,-146 159.83,-146 156,-142.17 156,-138.33 156,-138.33 156,-130.67 156,-130.67 156,-126.83 159.83,-123 163.67,-123 163.67,-123 369.33,-123 369.33,-123 373.17,-123 377,-126.83 377,-130.67 377,-130.67 377,-138.33 377,-138.33 377,-142.17 373.17,-146 369.33,-146"/>
<text text-anchor="middle" x="266.5" y="-130.8" font-family="Arial" font-size="14.00" fill="#c6c5fe">../lib/supabase/supabaseClients.ts</text>
</g>
<!-- (tabs)/index.tsx&#45;&gt;../lib/supabase/supabaseClients.ts -->
<g id="edge1" class="edge">
<title>(tabs)/index.tsx&#45;&gt;../lib/supabase/supabaseClients.ts</title>
<path fill="none" stroke="#757575" d="M114.2,-164.83C139.81,-159.7 170.8,-153.49 198.05,-148.02"/>
<polygon fill="#757575" stroke="#757575" points="198.79,-151.44 207.9,-146.05 197.41,-144.58 198.79,-151.44"/>
</g>
<!-- ../lib/supabase/database.types.ts -->
<g id="node13" class="node">
<title>../lib/supabase/database.types.ts</title>
<path fill="none" stroke="#cfffac" d="M618.33,-146C618.33,-146 420.67,-146 420.67,-146 416.83,-146 413,-142.17 413,-138.33 413,-138.33 413,-130.67 413,-130.67 413,-126.83 416.83,-123 420.67,-123 420.67,-123 618.33,-123 618.33,-123 622.17,-123 626,-126.83 626,-130.67 626,-130.67 626,-138.33 626,-138.33 626,-142.17 622.17,-146 618.33,-146"/>
<text text-anchor="middle" x="519.5" y="-130.8" font-family="Arial" font-size="14.00" fill="#cfffac">../lib/supabase/database.types.ts</text>
</g>
<!-- ../lib/supabase/supabaseClients.ts&#45;&gt;../lib/supabase/database.types.ts -->
<g id="edge2" class="edge">
<title>../lib/supabase/supabaseClients.ts&#45;&gt;../lib/supabase/database.types.ts</title>
<path fill="none" stroke="#757575" d="M377.23,-134.5C385.76,-134.5 394.39,-134.5 402.96,-134.5"/>
<polygon fill="#757575" stroke="#757575" points="402.98,-138 412.98,-134.5 402.98,-131 402.98,-138"/>
</g>
<!-- (tabs)/vue1.tsx -->
<g id="node5" class="node">
<title>(tabs)/vue1.tsx</title>
<path fill="none" stroke="#cfffac" d="M104.83,-228C104.83,-228 15.17,-228 15.17,-228 11.33,-228 7.5,-224.17 7.5,-220.33 7.5,-220.33 7.5,-212.67 7.5,-212.67 7.5,-208.83 11.33,-205 15.17,-205 15.17,-205 104.83,-205 104.83,-205 108.67,-205 112.5,-208.83 112.5,-212.67 112.5,-212.67 112.5,-220.33 112.5,-220.33 112.5,-224.17 108.67,-228 104.83,-228"/>
<text text-anchor="middle" x="60" y="-212.8" font-family="Arial" font-size="14.00" fill="#cfffac">(tabs)/vue1.tsx</text>
</g>
<!-- (tabs)/vue2a.tsx -->
<g id="node6" class="node">
<title>(tabs)/vue2a.tsx</title>
<path fill="none" stroke="#cfffac" d="M108.83,-269C108.83,-269 11.17,-269 11.17,-269 7.33,-269 3.5,-265.17 3.5,-261.33 3.5,-261.33 3.5,-253.67 3.5,-253.67 3.5,-249.83 7.33,-246 11.17,-246 11.17,-246 108.83,-246 108.83,-246 112.67,-246 116.5,-249.83 116.5,-253.67 116.5,-253.67 116.5,-261.33 116.5,-261.33 116.5,-265.17 112.67,-269 108.83,-269"/>
<text text-anchor="middle" x="60" y="-253.8" font-family="Arial" font-size="14.00" fill="#cfffac">(tabs)/vue2a.tsx</text>
</g>
<!-- (tabs)/vue2b.tsx -->
<g id="node7" class="node">
<title>(tabs)/vue2b.tsx</title>
<path fill="none" stroke="#cfffac" d="M108.83,-310C108.83,-310 11.17,-310 11.17,-310 7.33,-310 3.5,-306.17 3.5,-302.33 3.5,-302.33 3.5,-294.67 3.5,-294.67 3.5,-290.83 7.33,-287 11.17,-287 11.17,-287 108.83,-287 108.83,-287 112.67,-287 116.5,-290.83 116.5,-294.67 116.5,-294.67 116.5,-302.33 116.5,-302.33 116.5,-306.17 112.67,-310 108.83,-310"/>
<text text-anchor="middle" x="60" y="-294.8" font-family="Arial" font-size="14.00" fill="#cfffac">(tabs)/vue2b.tsx</text>
</g>
<!-- (tabs)/vue3.tsx -->
<g id="node8" class="node">
<title>(tabs)/vue3.tsx</title>
<path fill="none" stroke="#cfffac" d="M104.83,-351C104.83,-351 15.17,-351 15.17,-351 11.33,-351 7.5,-347.17 7.5,-343.33 7.5,-343.33 7.5,-335.67 7.5,-335.67 7.5,-331.83 11.33,-328 15.17,-328 15.17,-328 104.83,-328 104.83,-328 108.67,-328 112.5,-331.83 112.5,-335.67 112.5,-335.67 112.5,-343.33 112.5,-343.33 112.5,-347.17 108.67,-351 104.83,-351"/>
<text text-anchor="middle" x="60" y="-335.8" font-family="Arial" font-size="14.00" fill="#cfffac">(tabs)/vue3.tsx</text>
</g>
<!-- (tabs)/vue4.tsx -->
<g id="node9" class="node">
<title>(tabs)/vue4.tsx</title>
<path fill="none" stroke="#cfffac" d="M104.83,-392C104.83,-392 15.17,-392 15.17,-392 11.33,-392 7.5,-388.17 7.5,-384.33 7.5,-384.33 7.5,-376.67 7.5,-376.67 7.5,-372.83 11.33,-369 15.17,-369 15.17,-369 104.83,-369 104.83,-369 108.67,-369 112.5,-372.83 112.5,-376.67 112.5,-376.67 112.5,-384.33 112.5,-384.33 112.5,-388.17 108.67,-392 104.83,-392"/>
<text text-anchor="middle" x="60" y="-376.8" font-family="Arial" font-size="14.00" fill="#cfffac">(tabs)/vue4.tsx</text>
</g>
<!-- (tabs)/vue5.tsx -->
<g id="node10" class="node">
<title>(tabs)/vue5.tsx</title>
<path fill="none" stroke="#cfffac" d="M104.83,-433C104.83,-433 15.17,-433 15.17,-433 11.33,-433 7.5,-429.17 7.5,-425.33 7.5,-425.33 7.5,-417.67 7.5,-417.67 7.5,-413.83 11.33,-410 15.17,-410 15.17,-410 104.83,-410 104.83,-410 108.67,-410 112.5,-413.83 112.5,-417.67 112.5,-417.67 112.5,-425.33 112.5,-425.33 112.5,-429.17 108.67,-433 104.83,-433"/>
<text text-anchor="middle" x="60" y="-417.8" font-family="Arial" font-size="14.00" fill="#cfffac">(tabs)/vue5.tsx</text>
</g>
<!-- (tabs)/vue6.tsx -->
<g id="node11" class="node">
<title>(tabs)/vue6.tsx</title>
<path fill="none" stroke="#cfffac" d="M104.83,-474C104.83,-474 15.17,-474 15.17,-474 11.33,-474 7.5,-470.17 7.5,-466.33 7.5,-466.33 7.5,-458.67 7.5,-458.67 7.5,-454.83 11.33,-451 15.17,-451 15.17,-451 104.83,-451 104.83,-451 108.67,-451 112.5,-454.83 112.5,-458.67 112.5,-458.67 112.5,-466.33 112.5,-466.33 112.5,-470.17 108.67,-474 104.83,-474"/>
<text text-anchor="middle" x="60" y="-458.8" font-family="Arial" font-size="14.00" fill="#cfffac">(tabs)/vue6.tsx</text>
</g>
<!-- +not&#45;found.tsx -->
<g id="node12" class="node">
<title>+not&#45;found.tsx</title>
<path fill="none" stroke="#cfffac" d="M103.83,-515C103.83,-515 16.17,-515 16.17,-515 12.33,-515 8.5,-511.17 8.5,-507.33 8.5,-507.33 8.5,-499.67 8.5,-499.67 8.5,-495.83 12.33,-492 16.17,-492 16.17,-492 103.83,-492 103.83,-492 107.67,-492 111.5,-495.83 111.5,-499.67 111.5,-499.67 111.5,-507.33 111.5,-507.33 111.5,-511.17 107.67,-515 103.83,-515"/>
<text text-anchor="middle" x="60" y="-499.8" font-family="Arial" font-size="14.00" fill="#cfffac">+not&#45;found.tsx</text>
</g>
<!-- _layout.tsx -->
<g id="node14" class="node">
<title>_layout.tsx</title>
<path fill="none" stroke="#cfffac" d="M92.83,-556C92.83,-556 27.17,-556 27.17,-556 23.33,-556 19.5,-552.17 19.5,-548.33 19.5,-548.33 19.5,-540.67 19.5,-540.67 19.5,-536.83 23.33,-533 27.17,-533 27.17,-533 92.83,-533 92.83,-533 96.67,-533 100.5,-536.83 100.5,-540.67 100.5,-540.67 100.5,-548.33 100.5,-548.33 100.5,-552.17 96.67,-556 92.83,-556"/>
<text text-anchor="middle" x="60" y="-540.8" font-family="Arial" font-size="14.00" fill="#cfffac">_layout.tsx</text>
</g>
<!-- auth/_layout.tsx -->
<g id="node15" class="node">
<title>auth/_layout.tsx</title>
<path fill="none" stroke="#cfffac" d="M107.83,-597C107.83,-597 12.17,-597 12.17,-597 8.33,-597 4.5,-593.17 4.5,-589.33 4.5,-589.33 4.5,-581.67 4.5,-581.67 4.5,-577.83 8.33,-574 12.17,-574 12.17,-574 107.83,-574 107.83,-574 111.67,-574 115.5,-577.83 115.5,-581.67 115.5,-581.67 115.5,-589.33 115.5,-589.33 115.5,-593.17 111.67,-597 107.83,-597"/>
<text text-anchor="middle" x="60" y="-581.8" font-family="Arial" font-size="14.00" fill="#cfffac">auth/_layout.tsx</text>
</g>
<!-- auth/login.tsx -->
<g id="node16" class="node">
<title>auth/login.tsx</title>
<path fill="none" stroke="#c6c5fe" d="M100.33,-146C100.33,-146 19.67,-146 19.67,-146 15.83,-146 12,-142.17 12,-138.33 12,-138.33 12,-130.67 12,-130.67 12,-126.83 15.83,-123 19.67,-123 19.67,-123 100.33,-123 100.33,-123 104.17,-123 108,-126.83 108,-130.67 108,-130.67 108,-138.33 108,-138.33 108,-142.17 104.17,-146 100.33,-146"/>
<text text-anchor="middle" x="60" y="-130.8" font-family="Arial" font-size="14.00" fill="#c6c5fe">auth/login.tsx</text>
</g>
<!-- auth/login.tsx&#45;&gt;../lib/supabase/supabaseClients.ts -->
<g id="edge3" class="edge">
<title>auth/login.tsx&#45;&gt;../lib/supabase/supabaseClients.ts</title>
<path fill="none" stroke="#757575" d="M108.17,-134.5C119.64,-134.5 132.43,-134.5 145.61,-134.5"/>
<polygon fill="#757575" stroke="#757575" points="145.76,-138 155.76,-134.5 145.76,-131 145.76,-138"/>
</g>
<!-- auth/signup.tsx -->
<g id="node17" class="node">
<title>auth/signup.tsx</title>
<path fill="none" stroke="#c6c5fe" d="M105.83,-105C105.83,-105 14.17,-105 14.17,-105 10.33,-105 6.5,-101.17 6.5,-97.33 6.5,-97.33 6.5,-89.67 6.5,-89.67 6.5,-85.83 10.33,-82 14.17,-82 14.17,-82 105.83,-82 105.83,-82 109.67,-82 113.5,-85.83 113.5,-89.67 113.5,-89.67 113.5,-97.33 113.5,-97.33 113.5,-101.17 109.67,-105 105.83,-105"/>
<text text-anchor="middle" x="60" y="-89.8" font-family="Arial" font-size="14.00" fill="#c6c5fe">auth/signup.tsx</text>
</g>
<!-- auth/signup.tsx&#45;&gt;../lib/supabase/supabaseClients.ts -->
<g id="edge4" class="edge">
<title>auth/signup.tsx&#45;&gt;../lib/supabase/supabaseClients.ts</title>
<path fill="none" stroke="#757575" d="M113.66,-104.06C139.38,-109.21 170.62,-115.48 198.06,-120.98"/>
<polygon fill="#757575" stroke="#757575" points="197.49,-124.43 207.98,-122.97 198.87,-117.57 197.49,-124.43"/>
</g>
<!-- game/page.tsx -->
<g id="node18" class="node">
<title>game/page.tsx</title>
<path fill="none" stroke="#cfffac" d="M105.33,-638C105.33,-638 14.67,-638 14.67,-638 10.83,-638 7,-634.17 7,-630.33 7,-630.33 7,-622.67 7,-622.67 7,-618.83 10.83,-615 14.67,-615 14.67,-615 105.33,-615 105.33,-615 109.17,-615 113,-618.83 113,-622.67 113,-622.67 113,-630.33 113,-630.33 113,-634.17 109.17,-638 105.33,-638"/>
<text text-anchor="middle" x="60" y="-622.8" font-family="Arial" font-size="14.00" fill="#cfffac">game/page.tsx</text>
</g>
</g>
</svg>
